# xmcd CD database file
#
# Track frame offsets:
#	150
#	11847
#	26122
#	40803
#	55588
#	70253
#	81729
#	97714
#	113016
#	124360
#	139360
#	151339
#	161773
#	175751
#	192781
#	204966
#	214661
#	227170
#	240839
#	251885
#	265610
#	278480
#	297581
#	312451
#
# Disc length: 4341 seconds
#
# Revision: 2
# Processed by: cddbd v1.4b42PL1 Copyright (c) Steve Scherf et al.
# Submitted via: CdAid 2001.05.15.01
#
DISCID=5610f318
DTITLE=Varios - Clásicos de Puerto Rico
DYEAR=1900
DGENRE=
TTITLE0=Sueño de Dios
TTITLE1=Un Jíbaro Terminao
TTITLE2=Preciosa
TTITLE3=La Despedida
TTITLE4=Los Carreteros
TTITLE5=Puerto Rico
TTITLE6=Sin Bandera
TTITLE7=Qué Bonita Bandera
TTITLE8=Añoranza
TTITLE9=El Bambú
TTITLE10=Cuchifritos
TTITLE11=Verde luz
TTITLE12=En mi viejo San Juan
TTITLE13=Lamento Borincano
TTITLE14=Canción de la Serranía
TTITLE15=El Yunque y El Cordero
TTITLE16=Alma Borincana
TTITLE17=Perla del Caribe
TTITLE18=El Patriota
TTITLE19=Los Reyes No Llegaron
TTITLE20=El Buen Borincano
TTITLE21=Soñando con Puerto Rico
TTITLE22=Bello Amanecer
TTITLE23=El Eco y el Carretero
EXTD=
EXTT0=
EXTT1=
EXTT2=
EXTT3=
EXTT4=
EXTT5=
EXTT6=
EXTT7=
EXTT8=
EXTT9=
EXTT10=
EXTT11=
EXTT12=
EXTT13=
EXTT14=
EXTT15=
EXTT16=
EXTT17=
EXTT18=
EXTT19=
EXTT20=
EXTT21=
EXTT22=
EXTT23=
PLAYORDER=
